<svg width="32" height="32" viewBox="0 0 32 32" fill="none" xmlns="http://www.w3.org/2000/svg">
  <defs>
    <linearGradient id="bg" x1="0" y1="0" x2="32" y2="32" gradientUnits="userSpaceOnUse">
      <stop stop-color="#8B2635"/>
      <stop offset="1" stop-color="#6B1D2A"/>
    </linearGradient>
    <linearGradient id="gold" x1="6" y1="4" x2="26" y2="28" gradientUnits="userSpaceOnUse">
      <stop stop-color="#E9C98E"/>
      <stop offset="1" stop-color="#C8903F"/>
    </linearGradient>
  </defs>
  <rect width="32" height="32" rx="7.5" fill="url(#bg)"/>
  <path d="M15.5 4.5C16.7 13 19.5 15.8 28 17C19.5 18.2 16.7 21 15.5 29.5C14.3 21 11.5 18.2 3 17C11.5 15.8 14.3 13 15.5 4.5Z" fill="url(#gold)"/>
  <path d="M23.5 5C23.85 7.2 24.3 7.65 26.5 8C24.3 8.35 23.85 8.8 23.5 11C23.15 8.8 22.7 8.35 20.5 8C22.7 7.65 23.15 7.2 23.5 5Z" fill="#F5E6D3"/>
</svg>
